<svg viewBox="0 0 94 95" fill="none" xmlns="http://www.w3.org/2000/svg">
  <g clip-path="url(#a)">
    <path d="m90.2 3.7-7.9-2.6L10.8.4l-11.2 9L-1 87l7 7.5 80.3.9L95 86V11.2l-4.8-7.5Z" fill="#FFD100"/>
    <path d="M6 14.3v69.2l4 3.8 69.4-2 7.4-5.6-1-65.8-8.4-6h-63L6 14.3Z" fill="#FFDC00"/>
    <path d="M6 14.3v69.2l4 3.8 69.4-2 7.4-5.6-1-65.8-8.4-6h-63L6 14.3Z" fill="url(#b)"/>
    <path d="m86.8 79.7-1-65.8 9.2-2.7V86M86.3 95.4 6 94.5l4-7.2 69.4-2 6.9 10Z" fill="#FFAF00"/>
    <path d="m79.4 85.2 7.4-5.5L95 86l-8.7 9.4-6.9-10.2Z" fill="#FF9E00"/>
    <path d="m10 87.3-4-3.8V14.3l-6.4-5L-1 87l7 7.5 4-7.2ZM85.7 13.9l9.3-2.7-4.8-7.5-7.9-2.6-4.9 6.8 8.3 6Z" fill="#FFC500"/>
    <path d="M14.4 7.9 6 14.3l-6.4-5L10.8.5 14.4 8Z" fill="#FFED85"/>
    <path d="m10.8.4 71.5.7-4.9 6.8h-63L10.8.4Z" fill="#FFD100"/>
    <path d="m52.8 72 2.5-1.4 1 5.7-.9 5.5-2.9-3 .3-6.8Z" fill="#FFC500"/>
    <path d="m55.4 81.8-2.9-3-6.6.7-1.1 2.8 10.6-.5Z" fill="#FF9E00"/>
    <path d="m40.5 78.2-2.2 2-1.3-4.9.5-4.6 2.1 1.3.9 6.2Z" fill="#FFC500"/>
    <path d="m44.8 82.3 1.1-2.8-5.4-1.3-2.2 2 6.5 2.1Z" fill="#FFAF00"/>
    <path d="m52.8 72 2.5-1.4-2.8-2.4-2.4 2.6 2.7 1.2Z" fill="#FFD100"/>
    <path d="m37.5 70.7 2.1 1.3 5-1.7 5.5.5 2.4-2.6-4 .2-6.4-.8-4.6 3.1Z" fill="#FFED85"/>
    <path d="m39.6 72 5-1.7 5.5.5 2.7 1.2-.3 6.7-6.6.8-5.4-1.3-.9-6.2ZM39.6 60.8l6.8.9 6.4-1.5-.3-5 1.8-3.3 12.1-1.1 5.3-5.4 1.5-21.3-6.8-5.8-40.7-1.9-7 7 .5 13 12.1.7.7-8.4 2.5-2.7h23.7l2.2 2.7-.8 14H45.8L38 50l1.6 10.8Z" fill="#fff"/>
    <path d="m39.6 60.8-4 3.8L48.5 67l-2-5.2-6.8-.9Z" fill="#FFAF00"/>
    <path d="m52.8 60.2 4.8 4.4-.9 1.3-8.3 1-2-5.2 6.4-1.5Z" fill="#FF9E00"/>
    <path d="m57.6 64.6.6-7-5.7-2.3.3 4.9 4.8 4.4Z" fill="#FFC500"/>
    <path d="m54.3 52 4.9 4-1 1.6-5.7-2.3 1.8-3.4Z" fill="#FFAF00"/>
    <path d="m66.4 50.8 3.7 5.2h-11l-4.8-4 12.1-1.2Z" fill="#FF9E00"/>
    <path d="m71.7 45.4 6.9 2.7L70 56l-3.7-5.2 5.3-5.4Z" fill="#FFAF00"/>
    <path d="m66.4 18.3 6.8-1.9 5.4 7v24.7l-6.9-2.7 1.5-21.3-6.8-5.8ZM60.4 28.7l-5.6 3.7-.5 7 5.3 3.4.8-14.1Z" fill="#FFC500"/>
    <path d="m54.8 32.4-.7-1.3 4.1-5 2.2 2.6-5.6 3.7Z" fill="#FFAF00"/>
    <path d="m54.1 31.1-16.7-1-2.9-4h23.7l-4 5Z" fill="#FF9E00"/>
    <path d="m37.4 30.2-2.2 1.6-3.2-3.1 2.5-2.7 2.9 4.2Z" fill="#FFAF00"/>
    <path d="m31.3 37.1 2.6 3 1.3-8.3-3.2-3.1-.7 8.4Z" fill="#FFD100"/>
    <path d="m33.9 40.1-11.4 2.7 2.5-6.1 6.3.4 2.6 3Z" fill="#FF9E00"/>
    <path d="m19.2 36.4-4.8 3.3 8 3 2.6-6-5.8-.3Z" fill="#FFAF00"/>
    <path d="m18.7 23.5-5-3 .7 19.2 4.8-3.3-.5-13Z" fill="#FFC500"/>
    <path d="m18.7 23.5 7-7-3.2-4-8.8 8 5 3Z" fill="#FFED85"/>
    <path d="m73.2 16.4-6.8 2-40.7-2-3.2-3.8h28l22.7 3.8Z" fill="#FFD100"/>
    <path d="m35.7 64.6-1.8-16.8L38 50l1.6 10.8-4 3.8Z" fill="#FFC500"/>
    <path d="m59.6 42.8-5.3-3.3-14.3 1 5.8 2.3h13.8Z" fill="#FFD100"/>
    <path d="M45.8 42.8 38 50 34 47.8l6-7.3 6 2.3Z" fill="#FFED85"/>
  </g>
  <defs>
    <linearGradient id="b" x1="-20.6578" y1="-15.9161" x2="72.3369" y2="74.3438" gradientUnits="userSpaceOnUse">
      <stop stop-color="#fff"/>
      <stop offset="1" stop-color="#fff" stop-opacity="0"/>
    </linearGradient>
    <clipPath id="a">
      <path d="M0 16.9a16 16 0 0 1 16-16h62a16 16 0 0 1 16 16v62a16 16 0 0 1-16 16H16a16 16 0 0 1-16-16v-62Z" fill="#fff"/>
    </clipPath>
  </defs>
</svg>
