<svg xmlns="http://www.w3.org/2000/svg" width="24" height="24" fill="none"><g clip-path="url(#a)"><path fill="#6DA544" d="M12 24c6.627 0 12-5.373 12-12S18.627 0 12 0 0 5.373 0 12s5.373 12 12 12"/><path fill="#F0F0F0" d="M6.783 14.348c0 .864.7 1.565 1.565 1.565h4.695c0 .72.585 1.304 1.305 1.304h1.565c.72 0 1.304-.584 1.304-1.304v-1.565zM17.348 6.783v3.652c0 .575-.468 1.043-1.044 1.043v1.566a2.61 2.61 0 0 0 2.609-2.61V6.784zM6.13 10.435c0 .575-.468 1.043-1.043 1.043v1.566a2.61 2.61 0 0 0 2.609-2.609V6.783H6.13z"/><path fill="#F0F0F0" d="M15 6.783h1.565v3.652H15zM12.652 8.87a.261.261 0 0 1-.522 0V6.783h-1.565V8.87a.261.261 0 0 1-.521 0V6.783H8.478V8.87c0 1.006.82 1.826 1.826 1.826.388 0 .748-.122 1.044-.33a1.82 1.82 0 0 0 1.274.315c-.111.457-.523.797-1.013.797v1.566a2.61 2.61 0 0 0 2.608-2.61V6.784h-1.565z"/><path fill="#F0F0F0" d="M8.478 11.478h2.348v1.566H8.478z"/></g><defs><clipPath id="a"><path fill="#fff" d="M0 0h24v24H0z"/></clipPath></defs></svg>