<svg xmlns="http://www.w3.org/2000/svg" width="24" height="24" fill="none"><g clip-path="url(#a)"><path fill="#F0F0F0" d="M12 24c6.627 0 12-5.373 12-12S18.627 0 12 0 0 5.373 0 12s5.373 12 12 12"/><path fill="#D80027" d="M16.174 12c0 1.043-1.869 3.652-4.174 3.652S7.826 13.044 7.826 12a4.174 4.174 0 1 1 8.348 0"/><path fill="#0052B4" d="M16.174 12a4.174 4.174 0 1 1-8.348 0"/><path fill="#000" d="m16.424 15.69 1.106-1.107.738.738-1.106 1.106zM14.579 17.534l1.106-1.107.738.738-1.106 1.107zM18.637 17.903l1.107-1.107.738.738-1.107 1.106zM16.792 19.747l1.107-1.106.738.737-1.107 1.107zM17.53 16.796l1.107-1.106.738.737-1.107 1.107zM15.686 18.64l1.107-1.106.737.738-1.106 1.106zM18.642 8.313l-2.95-2.951.737-.738 2.95 2.95zM15.69 7.575 14.585 6.47l.738-.738 1.106 1.106zM17.535 9.42l-1.107-1.107.738-.737 1.107 1.106zM17.904 5.362l-1.107-1.107.738-.738 1.106 1.107zM19.749 7.207 18.642 6.1l.738-.738 1.107 1.107zM4.254 16.794l2.951 2.95-.738.739-2.95-2.951zM7.205 17.531l1.106 1.107-.737.737-1.107-1.106zM5.36 15.687l1.107 1.107-.738.738-1.106-1.107zM6.467 14.58l2.951 2.951-.738.738-2.95-2.951zM7.205 4.253l-2.951 2.95-.738-.737 2.951-2.951zM8.311 5.36l-2.95 2.95-.738-.738 2.95-2.95zM9.419 6.466l-2.95 2.951-.739-.737 2.951-2.951z"/></g><defs><clipPath id="a"><path fill="#fff" d="M0 0h24v24H0z"/></clipPath></defs></svg>