<svg xmlns="http://www.w3.org/2000/svg" width="24" height="24" fill="none"><g clip-path="url(#a)"><path fill="#F0F0F0" d="M.567 8.348A12 12 0 0 0 0 12c0 1.274.2 2.5.567 3.652L12 16.174l11.433-.522A12 12 0 0 0 24 12c0-1.274-.2-2.5-.567-3.652L12 7.826z"/><path fill="#D80027" d="M23.433 8.348 12 7.826.567 8.348Q.403 8.86.285 9.39h23.43a12 12 0 0 0-.282-1.043M.285 14.609q.119.531.282 1.043L12 16.174l11.433-.522q.164-.512.282-1.043z"/><path fill="#6DA544" d="M12 24c5.354 0 9.888-3.506 11.433-8.348H.567C2.112 20.494 6.647 24 12 24"/><path fill="#338AF3" d="M12 0C6.646 0 2.112 3.506.567 8.348h22.866C21.888 3.506 17.353 0 12 0"/><path fill="#F0F0F0" d="M5.484 4.957c0-1.124.79-2.063 1.844-2.294a2.348 2.348 0 1 0 0 4.586 2.35 2.35 0 0 1-1.844-2.292M8.716 6.024l.159.489h.514l-.416.302.16.49-.417-.303-.416.302.159-.489-.416-.302h.514zM10.358 6.024l.159.489h.514l-.416.302.159.49-.416-.303-.416.302.159-.489-.417-.302h.515zM12 6.024l.158.489h.515l-.416.302.158.49L12 7.001l-.416.302.16-.489-.417-.302h.514zM13.64 6.024l.16.489h.514l-.416.302.159.49-.416-.303-.416.302.159-.489-.416-.302h.514zM15.283 6.024l.158.489h.515l-.416.302.159.49-.416-.303-.417.302.16-.489-.417-.302h.515zM10.358 4.316l.159.49h.514l-.416.302.159.489-.416-.303-.416.303.159-.49-.417-.302h.515zM12 4.316l.158.49h.515l-.416.302.158.489L12 5.294l-.416.303.16-.49-.417-.302h.514zM13.64 4.316l.16.49h.514l-.416.302.159.489-.416-.303-.416.303.159-.49-.416-.302h.514zM15.283 4.316l.158.49h.515l-.416.302.159.489-.416-.303-.417.303.16-.49-.417-.302h.515zM12 2.609l.158.489h.515l-.416.302.158.49L12 3.586l-.416.302.16-.489-.417-.302h.514zM13.64 2.609l.16.489h.514l-.416.302.159.49-.416-.303-.416.302.159-.489-.416-.302h.514zM15.283 2.609l.158.489h.515l-.416.302.159.49-.416-.303-.417.302.16-.489-.417-.302h.515z"/></g><defs><clipPath id="a"><path fill="#fff" d="M0 0h24v24H0z"/></clipPath></defs></svg>